<svg xmlns="http://www.w3.org/2000/svg" version="1.1" xmlns:xlink="http://www.w3.org/1999/xlink" width="2000" height="1500" viewBox="0 0 2000 1500"><rect width="2000" height="1500" x="0" y="0" id="background" stroke="transparent" fill="#668239"></rect><svg xml:space="preserve" width="1500" height="1125" data-version="2" data-id="lg_Z7hUu9O3nGulrK32fC" viewBox="0 0 561 357" x="250" y="187.5"><rect width="100%" height="100%" fill="transparent"></rect><path fill="#fff" d="M57.855 97.045q0 1.97-.82 2.73-.83.76-2.8.76h-14.04q-1.98 0-2.8-.76-.83-.76-.83-2.73v-29.73l-13.12-15.23q-4.68-5.47-7.87-9.82-3.2-4.35-4.78-9t-1.58-10.91v-5.8q0-1.91.65-2.9 2.97-4.35 8.31-9.16.99-.79 1.78-.79t1.65.79q2.9 2.5 4.88 4.78 1.97 2.27 3.42 4.38.66 1.05.66 2.9v5.73q0 4.29 2.51 9.5 2.5 5.2 8.43 11.47l6.4 6.72 6.26-6.72q5.34-5.74 8.14-10.95 2.8-5.2 2.8-9.95v-5.8q0-1.91.66-2.9 2.84-4.29 8.04-9.16.99-.79 1.65-.79.79 0 1.65.79 2.77 2.5 4.71 4.78 1.95 2.27 3.33 4.38.66 1.05.66 2.9v5.8q0 7.25-3.16 13.88-3.17 6.62-10.75 15.06l-14.04 15.62Z"></path><rect width="76.59" height="96.83" x="-38.3" y="-48.41" fill="none" rx="0" ry="0" transform="translate(48.01 52.62)"></rect><path fill="#fff" d="M116.595 100.535q-6.79 0-10.32-1.71-3.53-1.72-4.75-5.61-1.22-3.89-1.22-10.35v-66.31q0-1.91.66-2.9 2.97-4.35 8.31-9.16.99-.79 1.71-.79.79 0 1.65.79 2.9 2.5 4.88 4.78 1.98 2.27 3.43 4.38.66 1.05.66 2.9v58.47q0 4.42 1.58 6.33 1.58 1.91 5.93 1.91l20.24-.07q1.58 0 2.37.53 1.71 1.19 3.56 2.83 1.85 1.65 3.89 3.96.66.86.66 1.38 0 .6-.66 1.32-2.04 2.31-3.89 3.96t-3.56 2.83q-.92.53-2.37.53Z"></path><rect width="59.53" height="96.83" x="-29.77" y="-48.41" fill="none" rx="0" ry="0" transform="translate(130.57 52.62)"></rect><path fill="#fff" d="M184.685 100.535q-6.79 0-10.32-1.71-3.52-1.72-4.74-5.61-1.22-3.89-1.22-10.35v-66.31q0-1.91.66-2.9 2.96-4.35 8.3-9.16.99-.79 1.72-.79.79 0 1.64.79 2.9 2.5 4.88 4.78 1.98 2.27 3.43 4.38.66 1.05.66 2.9v58.47q0 4.42 1.58 6.33 1.58 1.91 5.93 1.91l20.24-.07q1.58 0 2.37.53 1.72 1.19 3.56 2.83 1.85 1.65 3.89 3.96.66.86.66 1.38 0 .6-.66 1.32-2.04 2.31-3.89 3.96-1.84 1.65-3.56 2.83-.92.53-2.37.53Z"></path><rect width="59.52" height="96.83" x="-29.76" y="-48.41" fill="none" rx="0" ry="0" transform="translate(198.66 52.62)"></rect><path fill="#fff" d="M264.045 102.115q-8.37 0-13.87-1.52-5.51-1.51-8.83-3.79-3.33-2.27-5.11-4.51-.6-.86-1.06-1.65-.46-.79-.66-1.78-.26-1.32-.52-3.46-.27-2.14-.07-4.98.07-1.18.46-1.64.46-.53 1.52-.79 1.91-.47 4.97-.83 3.07-.36 4.39-.36 1.38 0 2.24.53.86.52 2.04 1.78 1.32 1.38 4.55 3.52 3.23 2.14 9.95 2.14 6.46 0 9.76-2.7t3.3-7.51q0-2.57-1.55-4.85-1.55-2.27-5.64-4.55-4.09-2.27-11.67-4.78-12.52-4.21-18.06-10.48-5.54-6.26-5.54-17.4 0-9.23 4.49-15.42 4.48-6.2 12.39-9.36 7.91-3.17 18.26-3.17 7.97 0 13.22 1.88 5.24 1.88 8.14 4.22 2.9 2.34 3.75 3.79.53.86.7 1.29.16.42.23 1.15.19 2.04.13 4.55-.07 2.5-.46 5.67-.2 1.05-.73 1.45-.46.33-1.45.33-6.39.13-9.89-.66-1.38-.33-1.84-.66-.46-.33-1.19-1.06-1.05-1.25-3.33-2.93-2.27-1.68-7.28-1.68-6.92 0-9.82 3.13-2.9 3.13-2.9 7.02 0 4.61 4.28 7.22 4.29 2.6 13.51 5.9 7.72 2.7 13.25 5.86 5.54 3.17 8.47 8.11 2.94 4.95 2.94 13.05 0 10.09-4.65 16.75t-12.66 9.92q-8 3.26-18.16 3.26"></path><rect width="65.73" height="97.56" x="-32.87" y="-48.78" fill="none" rx="0" ry="0" transform="translate(267.15 53.84)"></rect><path fill="#fff" d="M356.205 97.045q0 1.97-.83 2.73-.82.76-2.8.76h-14.04q-1.98 0-2.8-.76-.82-.76-.82-2.73v-73.7h-19.65q-1.58 0-2.37-.53-1.71-1.18-3.53-2.83-1.81-1.65-3.92-3.96-.66-.85-.66-1.38 0-.6.66-1.32 2.11-2.31 3.92-3.96 1.82-1.64 3.53-2.83.92-.53 2.37-.53h60.65q1.58 0 2.37.53 1.71 1.19 3.56 2.83 1.85 1.65 3.89 3.96.66.86.66 1.38 0 .6-.66 1.32-2.04 2.31-3.89 3.96t-3.56 2.83q-.92.53-2.37.53h-19.71Z"></path><rect width="81.61" height="94.53" x="-40.8" y="-47.27" fill="none" rx="0" ry="0" transform="translate(346.09 53.77)"></rect><path fill="#fff" d="M56.675 222.135q0 1.97-.83 2.73-.82.76-2.8.76h-14.04q-1.98 0-2.8-.76-.83-.76-.83-2.73v-73.7h-19.64q-1.58 0-2.37-.53-1.72-1.18-3.53-2.83-1.81-1.65-3.92-3.96-.66-.85-.66-1.38 0-.59.66-1.32 2.11-2.31 3.92-3.95 1.81-1.65 3.53-2.84.92-.53 2.37-.53h60.65q1.58 0 2.37.53 1.71 1.19 3.56 2.84 1.84 1.64 3.89 3.95.66.86.66 1.38 0 .6-.66 1.32-2.05 2.31-3.89 3.96-1.85 1.65-3.56 2.83-.92.53-2.37.53h-19.71Z"></path><rect width="81.61" height="94.53" x="-40.8" y="-47.27" fill="none" rx="0" ry="0" transform="translate(46.56 178.86)"></rect><path fill="#fff" d="M113.695 225.625q-6.79 0-10.32-1.71-3.53-1.72-4.75-5.61-1.22-3.89-1.22-10.35v-59.19q0-6.59 1.22-10.45 1.22-3.85 4.75-5.54 3.53-1.68 10.32-1.68h30.98q1.58 0 2.37.53 1.71 1.19 3.56 2.84 1.84 1.64 3.89 3.95.66.86.66 1.38 0 .6-.66 1.32-2.05 2.31-3.89 3.96-1.85 1.65-3.56 2.83-.92.53-2.37.53h-18.46q-4.35 0-5.93 1.85-1.59 1.84-1.59 6.32v12.79h23.67q1.58 0 2.37.53 1.72 1.19 3.56 2.83 1.85 1.65 3.89 3.96.66.86.66 1.38 0 .6-.66 1.32-2.04 2.31-3.89 3.96-1.84 1.64-3.56 2.83-.92.53-2.37.53h-23.67v13.31q0 4.42 1.59 6.33 1.58 1.91 5.93 1.91h20.63q1.58 0 2.37.53 1.72 1.19 3.56 2.84 1.85 1.64 3.89 3.95.66.86.66 1.38 0 .6-.66 1.32-2.04 2.31-3.89 3.96-1.84 1.65-3.56 2.83-.92.53-2.37.53Z"></path><rect width="59.92" height="94.53" x="-29.96" y="-47.27" fill="none" rx="0" ry="0" transform="translate(127.86 178.86)"></rect><path fill="#fff" d="M196.745 227.205q-8.37 0-13.87-1.51-5.51-1.52-8.84-3.79-3.33-2.28-5.11-4.52-.59-.86-1.05-1.65-.46-.79-.66-1.78-.26-1.32-.53-3.46-.26-2.14-.06-4.97.06-1.19.46-1.65.46-.53 1.51-.79 1.92-.47 4.98-.83 3.07-.36 4.39-.36 1.38 0 2.24.53.85.52 2.04 1.78 1.32 1.38 4.55 3.52 3.23 2.15 9.95 2.15 6.46 0 9.76-2.71 3.29-2.7 3.29-7.51 0-2.57-1.55-4.85-1.54-2.27-5.63-4.54-4.09-2.28-11.67-4.78-12.52-4.22-18.06-10.48-5.54-6.27-5.54-17.41 0-9.23 4.48-15.42 4.49-6.2 12.4-9.36 7.91-3.17 18.26-3.17 7.97 0 13.21 1.88 5.24 1.88 8.14 4.22 2.9 2.34 3.76 3.79.53.86.69 1.29.17.43.23 1.15.2 2.04.14 4.55-.07 2.5-.47 5.67-.19 1.05-.72 1.45-.46.33-1.45.33-6.39.13-9.89-.66-1.38-.33-1.84-.66-.47-.33-1.19-1.06-1.06-1.25-3.33-2.93-2.27-1.68-7.28-1.68-6.92 0-9.83 3.13-2.9 3.13-2.9 7.02 0 4.62 4.29 7.22 4.28 2.6 13.51 5.9 7.71 2.7 13.25 5.87 5.54 3.16 8.47 8.1 2.94 4.95 2.94 13.06 0 10.08-4.65 16.74-4.65 6.66-12.66 9.92t-18.16 3.26"></path><rect width="65.73" height="97.56" x="-32.87" y="-48.78" fill="none" rx="0" ry="0" transform="translate(199.85 178.93)"></rect><path fill="#fff" d="M288.905 222.135q0 1.97-.83 2.73-.82.76-2.8.76h-14.04q-1.98 0-2.8-.76-.83-.76-.83-2.73v-73.7h-19.64q-1.58 0-2.37-.53-1.72-1.18-3.53-2.83-1.81-1.65-3.92-3.96-.66-.85-.66-1.38 0-.59.66-1.32 2.11-2.31 3.92-3.95 1.81-1.65 3.53-2.84.92-.53 2.37-.53h60.64q1.59 0 2.38.53 1.71 1.19 3.56 2.84 1.84 1.64 3.89 3.95.66.86.66 1.38 0 .6-.66 1.32-2.05 2.31-3.89 3.96-1.85 1.65-3.56 2.83-.93.53-2.38.53h-19.7Z"></path><rect width="81.61" height="94.53" x="-40.8" y="-47.27" fill="none" rx="0" ry="0" transform="translate(278.79 178.86)"></rect><path fill="#fff" d="M350.925 222.135q0 1.97-.82 2.73t-2.8.76h-14.04q-1.98 0-2.8-.76-.83-.76-.83-2.73v-80.49q0-1.91.66-2.9 2.97-4.35 8.31-9.16.99-.79 1.71-.79.79 0 1.65.79 2.9 2.5 4.88 4.78 1.97 2.27 3.42 4.38.66 1.05.66 2.9Z"></path><rect width="21.29" height="96.83" x="-10.64" y="-48.41" fill="none" rx="0" ry="0" transform="translate(340.78 177.71)"></rect><path fill="#fff" d="M392.125 222.135q0 1.97-.76 2.73-.75.76-2.67.76h-13.24q-1.85 0-2.64-.76t-.79-2.73v-83.52q0-3.89 1.51-5.7 1.52-1.82 5.34-1.82h6.13q3.37 0 6.36.89 3 .89 6.4 3.99 3.39 3.1 7.91 9.59 4.51 6.5 10.91 17.7 6.13 10.68 9.85 17.07 3.73 6.4 5.77 9.76 2.04 3.36 3.07 4.81 1.02 1.45 1.68 2.38v-55.64q0-1.91.59-2.9 2.83-4.35 7.84-9.16.99-.79 1.65-.79.73 0 1.58.79 2.71 2.5 4.59 4.78 1.87 2.27 3.26 4.38.59 1.05.59 2.9v78.51q0 2.97-1.12 4.22-1.12 1.25-4.09 1.25h-6.32q-2.84 0-5.8-.96-2.97-.95-6.73-4.35-3.76-3.39-8.9-10.58-5.14-7.18-12.39-19.64-6.13-10.61-9.79-16.87-3.66-6.27-5.57-9.46-1.91-3.2-2.77-4.49-.85-1.28-1.45-1.94Z"></path><rect width="85.03" height="96.83" x="-42.52" y="-48.41" fill="none" rx="0" ry="0" transform="translate(415.04 177.71)"></rect><path fill="#fff" d="M554.745 219.165q-1.58 1.12-5.63 3.07-4.06 1.94-11.18 3.46-7.12 1.51-17.86 1.51-14.44 0-24.88-4.78-10.45-4.78-16.06-15.49-5.6-10.71-5.6-28.38 0-23.53 12.06-36.28 12.07-12.76 33.62-12.76 10.29 0 16.42 1.98 6.13 1.98 9.29 4.61 3.16 2.64 4.42 4.62.46.72.66 1.28.19.56.26 1.75.2 1.58.1 4.61-.1 3.04-.5 5.34-.26 1.45-.85 1.92-.27.26-.93.46-.65.19-1.97.19-2.11 0-4.91-.16-2.81-.17-4.12-.36-1.59-.27-2.28-.76-.69-.5-1.48-1.55t-2.18-2.47q-1.38-1.42-4.18-2.54t-7.75-1.12q-10.87 0-17.07 7.88-6.2 7.87-6.2 22.64 0 15.49 6.43 23.53 6.43 8.04 18.49 8.04 6.06 0 8.93-.89t3.66-1.35v-20.5q0-1.91.66-2.9 2.97-4.35 8.31-9.16.98-.79 1.71-.79.79 0 1.65.79 2.9 2.5 4.88 4.78 1.97 2.27 3.42 4.38.66 1.06.66 2.9Z"></path><rect width="81.21" height="97.69" x="-40.6" y="-48.84" fill="none" rx="0" ry="0" transform="translate(514.64 178.86)"></rect><path fill="#fff" d="M32.085 350.715q-6.79 0-10.32-1.71-3.52-1.72-4.74-5.61-1.22-3.89-1.22-10.35v-66.31q0-1.91.66-2.9 2.96-4.35 8.3-9.16.99-.79 1.72-.79.79 0 1.64.79 2.9 2.5 4.88 4.78 1.98 2.27 3.43 4.38.66 1.06.66 2.9v58.47q0 4.42 1.58 6.33 1.58 1.91 5.93 1.91l20.24-.07q1.58 0 2.37.53 1.72 1.19 3.56 2.84 1.85 1.64 3.89 3.95.66.86.66 1.39 0 .59-.66 1.31-2.04 2.31-3.89 3.96-1.84 1.65-3.56 2.83-.92.53-2.37.53Z"></path><rect width="59.52" height="96.83" x="-29.76" y="-48.41" fill="none" rx="0" ry="0" transform="translate(46.06 302.8)"></rect><path fill="#fff" d="M139.395 261.395q3.63 5.08 7.42 13.09t7.35 17.56q3.56 9.56 6.43 19.55 2.86 9.99 4.71 19.21 1.84 9.23 2.11 16.42.06 3.49-3.17 3.49h-15.95q-3.1 0-3.23-3.1-.26-7.38-2.37-17.93h-35.99q-1.85 10.29-2.11 17.93-.13 3.1-3.36 3.1h-15.63q-1.18 0-1.97-.69t-.73-2.41q.33-7.31 2.14-16.64 1.82-9.33 4.72-19.35 2.9-10.02 6.46-19.61t7.38-17.57q3.82-7.97 7.45-13.05 1.91-2.7 4.05-3.95 2.14-1.26 5.31-1.26h9.49q3.23 0 5.41 1.26 2.17 1.25 4.08 3.95m-14.89 15.62q-4.35 6.93-7.98 16.55-3.63 9.62-6.26 19.78h28.61q-2.77-10.16-6.4-19.78-3.62-9.62-7.58-16.55Z"></path><rect width="84.55" height="94.53" x="-42.27" y="-47.27" fill="none" rx="0" ry="0" transform="translate(125.66 303.95)"></rect><path fill="#fff" d="M199.185 350.715q-6.79 0-10.32-1.71-3.52-1.72-4.74-5.61-1.22-3.89-1.22-10.35v-59.19q0-6.59 1.22-10.45 1.22-3.85 4.74-5.53 3.53-1.69 10.32-1.69h18.13q15.82 0 24.32 5.81 8.51 5.8 8.51 16.34 0 5.21-2.38 9.5-2.37 4.28-6.23 7.31-3.85 3.03-8.4 4.55v.26q5.8.8 10.48 3.79 4.68 3 7.48 7.78 2.8 4.78 2.8 10.98 0 9.23-4.45 15.52-4.45 6.3-12.26 9.49-7.81 3.2-17.96 3.2Zm5.01-23.93q0 4.42 1.58 6.33 1.58 1.91 5.94 1.91h5q6.66 0 10.72-3.43 4.05-3.42 4.05-9.36 0-5.66-3.95-8.89-3.96-3.23-10.22-3.23h.06q-1.58 0-2.37-.47-1.71-1.12-3.53-2.6-1.81-1.48-3.92-3.59-.66-.86-.66-1.25 0-.53.66-1.26 2.11-2.11 3.92-3.62 1.82-1.52 3.53-2.57.92-.46 2.37-.46h-.06q3.89 0 7.15-2.91 3.26-2.9 3.26-9.09 0-6.26-3.49-8.34t-8.97-2.08h-3.55q-4.36 0-5.94 1.85-1.58 1.84-1.58 6.33Z"></path><rect width="70.99" height="94.53" x="-35.49" y="-47.27" fill="none" rx="0" ry="0" transform="translate(218.9 303.95)"></rect><path fill="#fff" d="M295.295 352.295q-8.37 0-13.88-1.51-5.5-1.52-8.83-3.79-3.33-2.28-5.11-4.52-.59-.86-1.05-1.65-.46-.79-.66-1.78-.27-1.31-.53-3.46-.26-2.14-.07-4.97.07-1.19.47-1.65.46-.53 1.51-.79 1.91-.46 4.98-.83 3.06-.36 4.38-.36 1.39 0 2.24.53.86.53 2.05 1.78 1.32 1.38 4.55 3.52 3.23 2.15 9.95 2.15 6.46 0 9.75-2.71 3.3-2.7 3.3-7.51 0-2.57-1.55-4.85-1.55-2.27-5.63-4.54-4.09-2.28-11.67-4.78-12.53-4.22-18.06-10.48-5.54-6.27-5.54-17.41 0-9.22 4.48-15.42 4.48-6.2 12.39-9.36 7.91-3.17 18.26-3.17 7.98 0 13.22 1.88t8.14 4.22q2.9 2.34 3.76 3.79.53.86.69 1.29.17.43.23 1.15.2 2.04.13 4.55-.06 2.5-.46 5.67-.2 1.05-.72 1.45-.46.33-1.45.33-6.4.13-9.89-.66-1.39-.33-1.85-.66-.46-.33-1.18-1.05-1.06-1.26-3.33-2.94-2.28-1.68-7.29-1.68-6.92 0-9.82 3.13-2.9 3.13-2.9 7.02 0 4.62 4.29 7.22 4.28 2.6 13.51 5.9 7.71 2.7 13.25 5.87 5.54 3.16 8.47 8.1 2.93 4.95 2.93 13.06 0 10.08-4.64 16.74-4.65 6.66-12.66 9.92t-18.16 3.26"></path><rect width="65.72" height="97.56" x="-32.86" y="-48.78" fill="none" rx="0" ry="0" transform="translate(298.4 304.01)"></rect></svg></svg>