<svg xmlns="http://www.w3.org/2000/svg" viewBox="253.897 186.002 565.87 132.065"><svg x="250" y="187.5" data-id="lg_acGofV2ioIRcrQTkzE" data-version="2" transform="translate(-430.523 -70.865)"><rect width="589.56" height="133.94" x="-294.78" y="-66.97" fill="#3d9945" rx="0" ry="0" transform="translate(285.5 65)scale(.9499)"/><path fill="#fff" d="M154.03 46.8q0-1.06 1.04-1.06h4.34q1.04 0 1.04 1.04 0 4.54.04 9.09.04 4.54.04 9.09 0 2.46-.01 4.96-.02 2.5-.02 4.99 0 .31.31.31h13.94q1.01 0 1.04 1.01l.07 4.04q.06 1.07-1.04 1.07h-19.78q-1.04 0-1.04-1.07 0-1.4.04-2.78.04-1.39.06-2.78.08-5.84.08-11.66 0-4.08-.08-8.13-.07-4.05-.07-8.12" paint-order="stroke"/><rect width="21.88" height="35.6" x="-10.94" y="-17.8" fill="none" rx="0" ry="0" transform="translate(165.44 64.04)"/><path fill="#fff" d="M191.45 81.94q-3.7 0-6.46-1.47-2.75-1.47-4.28-4.19-1.52-2.71-1.52-6.45 0-3.48 1.45-6.24 1.45-2.77 4.09-4.38t6.19-1.61q4.39 0 6.89 2.46 2.51 2.46 3.39 6.55.03.07.03.25 0 .38-.19.57t-.5.32q-.86.41-1.82.71-.97.31-1.88.66-2.67.99-5.36 1.94-2.69.96-5.33 2.02-.21.1-.21.26 0 .07.06.17 1.01 1.83 2.79 2.72t3.81.89q1.6 0 2.98-.51t2.73-1.27q.18-.1.36-.17.17-.08.35-.08.36 0 .55.22.19.21.31.49.11.18.4.8t.56 1.24q.26.63.26.8 0 .28-.15.46t-.35.33q-1.81 1.25-4.38 1.88-2.58.63-4.77.63m-6.37-12.36q2.57-.89 5.13-1.78t5.1-1.78q-.63-1.39-1.76-2.43t-2.78-1.04q-1.93 0-3.2 1.04t-1.88 2.65-.61 3.34" paint-order="stroke"/><rect width="22.04" height="24.34" x="-11.02" y="-12.17" fill="none" rx="0" ry="0" transform="translate(190.71 70.27)"/><path fill="#fff" d="M214.28 81.82q-3.3 0-5.53-1.58-2.24-1.57-3.37-4.17-1.13-2.61-1.13-5.65v-.41q.05-3.2 1.33-6.02 1.29-2.81 3.72-4.55 2.44-1.74 5.89-1.74 2.14 0 3.98.8t3.44 2.17q.18.18.3.18.31 0 .3-.64-.02-.63.17-1.27.19-.63 1.01-.63h3.58q1.04 0 1.04 1.04 0 1.09-.02 2.18-.01 1.09-.01 2.18 0 2.8.04 5.62.04 2.81.06 5.61.03 1.32.07 2.65t.04 2.68q0 1.07-1.05 1.07h-3.98q-.69 0-.89-.45-.2-.44-.18-1.05.03-.61 0-1.09 0-.08-.02-.26-.03-.18-.16-.18-.1 0-.19.08t-.16.13q-1.78 1.49-3.84 2.4-2.05.9-4.44.9m2.59-5.41q1.8 0 3.34-.75t2.4-2.37l.24-.52q.19-.42.19-.52 0-.89-.01-1.78t-.01-1.75q0-.41.02-.91.03-.49-.02-.87-.03-.18-.2-.53-.16-.36-.24-.51-.89-1.6-2.51-2.39-1.63-.79-3.4-.79-1.88 0-3.3.94-1.43.94-2.22 2.48-.8 1.54-.8 3.36 0 1.83.83 3.41.84 1.57 2.33 2.53 1.48.97 3.36.97" paint-order="stroke"/><rect width="24.94" height="24.12" x="-12.47" y="-12.06" fill="none" rx="0" ry="0" transform="translate(217.22 70.26)"/><path fill="#fff" d="M238.53 58.31q.96 0 1.04.94l.25 2.89q0 .03.05.37.06.34.18.34.13 0 .27-.28t.16-.33q1.04-1.95 2.54-3.07t3.79-1.12q.53 0 1.35.09.83.09.83.85 0 .38-.15 1.19-.15.82-.35 1.64-.19.83-.29 1.26t-.31.67q-.22.24-.73.24-.25 0-.49-.03-.24-.04-.52-.04-2.01 0-3.38 1.25-1.37 1.26-2.06 3.09-.68 1.83-.68 3.6v8.43q0 1.05-1.04 1.05h-3.94q-1.04 0-1.04-1.07 0-3.94.04-7.86t.04-7.83v-5.23q0-1.04 1.04-1.04Z" paint-order="stroke"/><rect width="14.98" height="23.29" x="-7.49" y="-11.64" fill="none" rx="0" ry="0" transform="translate(242 70.2)"/><path fill="#fff" d="M255.97 58.31q.94 0 1.04.91.08.51.13 1.02l.1 1.01q0 .05.05.29t.18.24.24-.15q.12-.15.17-.23 1.52-1.95 3.7-2.81 2.19-.87 4.6-.87 1.98 0 3.64.83 1.67.82 2.68 2.33 1.02 1.51 1.02 3.6 0 3.93.09 7.89.08 3.96.08 7.9 0 1.07-1.04 1.07h-3.98q-.97 0-1.04-1.05-.08-1.09-.05-2.19.02-1.11 0-2.2-.03-2.33-.03-4.64v-4.63q0-1.8-1.04-2.7t-2.77-.9q-2.16 0-3.54 1.32t-2.06 3.25q-.67 1.93-.67 3.78 0 2.24-.03 4.46-.02 2.22-.05 4.45 0 1.05-1.04 1.05h-3.98q-1.04 0-1.04-1.07 0-1.42.03-2.83.04-1.41.07-2.81.07-5.94.07-11.88v-3.4q0-1.04 1.04-1.04Z" paint-order="stroke"/><rect width="22.36" height="23.62" x="-11.18" y="-11.81" fill="none" rx="0" ry="0" transform="translate(263.01 70.03)"/><path fill="#fff" d="M289.84 81.94q-3.7 0-6.46-1.47-2.75-1.47-4.28-4.19-1.52-2.71-1.52-6.45 0-3.48 1.45-6.24 1.44-2.77 4.08-4.38 2.65-1.61 6.2-1.61 4.39 0 6.89 2.46t3.39 6.55q.03.07.03.25 0 .38-.19.57t-.5.32q-.86.41-1.83.71-.96.31-1.87.66-2.67.99-5.36 1.94-2.69.96-5.33 2.02-.21.1-.21.26 0 .07.05.17 1.02 1.83 2.8 2.72 1.77.89 3.81.89 1.6 0 2.98-.51t2.73-1.27q.18-.1.35-.17.18-.08.36-.08.36 0 .55.22.19.21.31.49.1.18.4.8.29.62.56 1.24.26.63.26.8 0 .28-.15.46t-.36.33q-1.8 1.25-4.38 1.88-2.57.63-4.76.63m-6.37-12.36q2.56-.89 5.13-1.78 2.56-.89 5.1-1.78-.63-1.39-1.76-2.43t-2.78-1.04q-1.93 0-3.2 1.04t-1.88 2.65-.61 3.34" paint-order="stroke"/><rect width="22.04" height="24.34" x="-11.02" y="-12.17" fill="none" rx="0" ry="0" transform="translate(289.1 70.27)"/><path fill="#fff" d="M308.1 58.31q.96 0 1.04.94l.25 2.89q0 .03.05.37.06.34.18.34.13 0 .27-.28t.16-.33q1.05-1.95 2.54-3.07 1.5-1.12 3.79-1.12.53 0 1.35.09.83.09.83.85 0 .38-.15 1.19-.15.82-.35 1.64-.19.83-.29 1.26t-.31.67q-.22.24-.73.24-.25 0-.49-.03-.24-.04-.52-.04-2.01 0-3.38 1.25-1.37 1.26-2.06 3.09-.68 1.83-.68 3.6v8.43q0 1.05-1.04 1.05h-3.94q-1.04 0-1.04-1.07 0-3.94.04-7.86t.04-7.83v-5.23q0-1.04 1.04-1.04Z" paint-order="stroke"/><rect width="14.98" height="23.29" x="-7.49" y="-11.64" fill="none" rx="0" ry="0" transform="translate(311.57 70.2)"/><path fill="#fff" d="M344.56 73.34q.36 0 .55.24t.34.52q.15.25.61 1.18t.86 1.83q.41.9.41 1.1 0 .38-.43.74-1.81 1.37-4.5 2.07t-4.95.7q-5.33 0-9.15-2.42-3.82-2.41-5.87-6.52-2.04-4.11-2.04-9.24 0-3.69 1.08-6.97 1.08-3.29 3.16-5.82 2.08-2.52 5.11-3.96 3.04-1.43 6.95-1.43 2.31 0 4.92.63 2.62.64 4.55 1.91.51.33.51.76 0 .12-.24.73t-.58 1.39q-.33.77-.62 1.41-.29.63-.39.83-.13.26-.32.53-.19.26-.54.26-.23 0-.42-.11-.19-.12-.4-.22-1.44-.91-2.93-1.46-1.48-.54-3.24-.54-2.36 0-4.21 1.05t-3.14 2.81q-1.28 1.75-1.94 3.88t-.66 4.27q0 3.22 1.13 5.98 1.13 2.75 3.44 4.44t5.82 1.69q1.77 0 3.28-.49 1.51-.48 2.99-1.42l.4-.24q.21-.11.46-.11" paint-order="stroke"/><rect width="26.94" height="36.36" x="-13.47" y="-18.18" fill="none" rx="0" ry="0" transform="translate(334.36 64.04)"/><path fill="#fff" d="M356.24 58.31q.96 0 1.04.94l.25 2.89q0 .03.06.37.05.34.17.34.13 0 .27-.28t.16-.33q1.05-1.95 2.54-3.07 1.5-1.12 3.79-1.12.53 0 1.36.09.82.09.82.85 0 .38-.15 1.19-.15.82-.34 1.64-.19.83-.3 1.26-.1.43-.31.67-.22.24-.73.24-.25 0-.49-.03-.24-.04-.52-.04-2.01 0-3.38 1.25-1.37 1.26-2.06 3.09-.68 1.83-.68 3.6v8.43q0 1.05-1.04 1.05h-3.94q-1.04 0-1.04-1.07 0-3.94.04-7.86t.04-7.83v-5.23q0-1.04 1.04-1.04Z" paint-order="stroke"/><rect width="14.98" height="23.29" x="-7.49" y="-11.64" fill="none" rx="0" ry="0" transform="translate(359.71 70.2)"/><path fill="#fff" d="M378.13 81.82q-3.3 0-5.54-1.58-2.23-1.57-3.36-4.17-1.13-2.61-1.13-5.65v-.41q.05-3.2 1.33-6.02 1.28-2.81 3.72-4.55t5.89-1.74q2.13 0 3.97.8t3.44 2.17q.18.18.31.18.3 0 .29-.64-.01-.63.18-1.27.19-.63 1-.63h3.58q1.04 0 1.04 1.04 0 1.09-.01 2.18t-.01 2.18q0 2.8.04 5.62l.06 5.61q.02 1.32.06 2.65t.04 2.68q0 1.07-1.04 1.07H388q-.68 0-.89-.45-.2-.44-.17-1.05.02-.61 0-1.09 0-.08-.03-.26-.02-.18-.15-.18-.1 0-.19.08t-.17.13q-1.77 1.49-3.83 2.4-2.06.9-4.44.9m2.59-5.41q1.8 0 3.34-.75 1.53-.75 2.39-2.37.06-.11.25-.52.19-.42.19-.52 0-.89-.02-1.78-.01-.89-.01-1.75 0-.41.03-.91.02-.49-.03-.87-.02-.18-.19-.53-.16-.36-.24-.51-.89-1.6-2.51-2.39-1.63-.79-3.41-.79-1.88 0-3.3.94t-2.22 2.48-.8 3.36q0 1.83.84 3.41.84 1.57 2.32 2.53 1.49.97 3.37.97" paint-order="stroke"/><rect width="24.93" height="24.12" x="-12.46" y="-12.06" fill="none" rx="0" ry="0" transform="translate(381.06 70.26)"/><path fill="#fff" d="M399.86 81.34q-1.04 0-1.04-1.05 0-4.16.04-8.35t.04-8.35q0-.36-.47-.35-.47.02-1.1.07-.62.05-1.09-.13t-.47-.94v-2.97q0-1.04 1.04-1.04h1.78q.31 0 .31-.3 0-.74-.02-1.48-.01-.73-.01-1.47 0-2.72.83-5.03.82-2.31 2.66-3.72t4.86-1.41q.72 0 1.46.07.75.06 1.44.21.81.18.81.84 0 .15-.21.99-.22.84-.46 1.7-.24.87-.32 1.12-.1.35-.28.56-.18.2-.61.2-.33 0-.68-.06-.36-.07-.71-.07-1.25 0-1.85.84-.59.84-.76 2-.16 1.15-.16 2.09v2.62q0 .3.3.3h3.38q1.04 0 1.04 1.07v2.94q0 1.04-1.04 1.04h-3.38q-.3 0-.3.31 0 4.16.01 8.35t.01 8.35q0 1.05-1.04 1.05Z" paint-order="stroke"/><rect width="15.16" height="36.52" x="-7.58" y="-18.26" fill="none" rx="0" ry="0" transform="translate(403.85 63.58)"/><path fill="#fff" d="M415.86 57.95q0-2.18-.03-4.35-.02-2.17-.02-4.33 0-1.04 1.04-1.04h3.98q1.04 0 1.04 1.04 0 2.16-.01 4.33t-.01 4.35q0 .31.33.31h3.99q1.04 0 1.04 1.04 0 .78-.02 1.58-.01.8-.01 1.62 0 1.04-1.04 1.04h-3.96q-.33 0-.33.3 0 4.11.02 8.23.03 4.11.03 8.22 0 1.05-1.04 1.05h-4.04q-1.04 0-1.04-1.05 0-4.11.04-8.22.04-4.12.04-8.23 0-.38-.54-.37-.53.02-1.22.09-.68.08-1.21-.1-.54-.18-.54-.96v-3.2q0-1.04 1.04-1.04h2.14q.33 0 .33-.31" paint-order="stroke"/><rect width="14.86" height="33.11" x="-7.43" y="-16.55" fill="none" rx="0" ry="0" transform="translate(420.28 65.28)"/><path fill="#fff" d="M444.7 46.8q0-1.06 1.04-1.06h4.34q1.04 0 1.04 1.04 0 4.54.04 9.09.04 4.54.04 9.09 0 2.46-.01 4.96t-.01 4.99q0 .31.3.31h13.94q1.02 0 1.04 1.01l.08 4.04q.05 1.07-1.04 1.07h-19.78q-1.04 0-1.04-1.07 0-1.4.03-2.78.04-1.39.07-2.78.07-5.84.07-11.66 0-4.08-.07-8.13-.08-4.05-.08-8.12" paint-order="stroke"/><rect width="21.88" height="35.6" x="-10.94" y="-17.8" fill="none" rx="0" ry="0" transform="translate(456.12 64.04)"/><path fill="#fff" d="M479.89 81.82q-3.3 0-5.53-1.58-2.24-1.57-3.37-4.17-1.13-2.61-1.13-5.65v-.41q.05-3.2 1.34-6.02 1.28-2.81 3.72-4.55 2.43-1.74 5.89-1.74 2.13 0 3.97.8t3.44 2.17q.18.18.3.18.31 0 .3-.64-.02-.63.17-1.27.2-.63 1.01-.63h3.58q1.04 0 1.04 1.04 0 1.09-.01 2.18-.02 1.09-.02 2.18 0 2.8.04 5.62.04 2.81.06 5.61.03 1.32.07 2.65t.04 2.68q0 1.07-1.04 1.07h-3.99q-.69 0-.89-.45-.2-.44-.18-1.05.03-.61 0-1.09 0-.08-.02-.26-.03-.18-.16-.18-.1 0-.19.08-.08.08-.16.13-1.78 1.49-3.83 2.4-2.06.9-4.45.9m2.59-5.41q1.8 0 3.34-.75t2.4-2.37l.24-.52q.19-.42.19-.52 0-.89-.01-1.78t-.01-1.75q0-.41.02-.91.03-.49-.02-.87-.03-.18-.19-.53-.17-.36-.25-.51-.88-1.6-2.51-2.39-1.62-.79-3.4-.79-1.88 0-3.3.94t-2.22 2.48-.8 3.36q0 1.83.83 3.41.84 1.57 2.33 2.53 1.48.97 3.36.97" paint-order="stroke"/><rect width="24.94" height="24.12" x="-12.47" y="-12.06" fill="none" rx="0" ry="0" transform="translate(482.83 70.26)"/><path fill="#fff" d="M524.55 69.88q0 3.28-1.37 6-1.37 2.71-3.88 4.33-2.52 1.61-5.94 1.61-4.14 0-7.09-2.62-.07-.05-.16-.14t-.22-.09q-.12 0-.15.19t-.03.27q0 .61-.05 1.26t-.94.65h-4.06q-1.04 0-1.04-1.07 0-1.4.04-2.78.04-1.39.06-2.78.05-2.92.08-5.84.02-2.92.02-5.84t-.02-5.84q-.03-2.92-.08-5.84-.02-1.4-.06-2.78-.04-1.39-.04-2.78 0-1.07 1.04-1.07h3.94q.61 0 .8.26.19.25.24.78.1.82.06 2.21-.04 1.4-.01 2.31l.04 4.75q.01 2.36.01 4.75 0 .1.03.25.02.15.17.15.13 0 .33-.15 3.3-2.33 7.34-2.33 3.61 0 6.03 1.63 2.43 1.64 3.67 4.41t1.24 6.14m-12.39 6.33q1.88 0 3.3-.94 1.43-.94 2.23-2.49t.8-3.35q0-1.83-.79-3.39t-2.2-2.53q-1.41-.96-3.34-.96-1.72 0-3.31.75-1.59.74-2.5 2.27-.1.18-.31.58-.2.41-.25.61-.05.31-.02.71.02.41.02.74v1.94q0 .98-.02 1.94.81 2.09 2.51 3.1 1.7 1.02 3.88 1.02" paint-order="stroke"/><rect width="24.93" height="37.1" x="-12.46" y="-18.55" fill="none" rx="0" ry="0" transform="translate(512.59 63.77)"/><path fill="#fff" d="M533.26 82q-1.44 0-3.02-.54-1.57-.53-2.61-1.6-.31-.3-.31-.66 0-.15.17-.77.16-.62.36-1.28.21-.66.26-.87.1-.3.28-.59.18-.3.56-.3.48 0 1.49.64 1.02.63 2.34.63 2.31 0 2.31-2.23 0-1.45-.93-2.01-.92-.56-1.99-1.11-2.13-1.15-3.25-2.8t-1.12-4.11q0-3.12 1.85-4.88 1.84-1.75 4.91-1.75.38 0 1.18.1.8.11 1.66.32.87.22 1.47.59.61.36.61.87 0 .48-.2 1.06-.2.57-.33 1.05-.1.33-.28.63-.18.31-.61.31-.53 0-1.14-.28t-1.32-.28q-.97 0-1.7.57-.74.57-.74 1.61 0 1.2.73 1.86.72.66 1.79 1.17 1.06.5 2.13 1.24 1.06.74 1.79 2.04.72 1.31.72 3.6 0 3.25-1.81 5.51-1.82 2.26-5.25 2.26" paint-order="stroke"/><rect width="13" height="24.23" x="-6.5" y="-12.12" fill="none" rx="0" ry="0" transform="translate(534.32 70.39)"/><rect width="120.97" height="120.97" x="-60.48" y="-60.48" fill="#fff" rx="0" ry="0" transform="translate(69.05 65)scale(.9499)"/><path fill="#3d9945" d="M100.09 32.622H83.926c-1.17 0-2.121.958-2.121 2.14s.95 2.138 2.121 2.138h1.53v54.91h-.014v2.89c0 3.51 2.836 6.367 6.324 6.367 3.486 0 6.321-2.856 6.321-6.367V36.9h2c1.17 0 2.122-.958 2.122-2.139s-.95-2.139-2.12-2.139M90.657 36.9h3.188v28.33h-4.142V36.9zm-14.19 49.427v-.028a2.136 2.136 0 0 0 2.13-2.12h.006V42.441a2.14 2.14 0 0 0-2.135-2.15H68.39V29.918c0-.729-.366-1.407-.975-1.805a2.12 2.12 0 0 0-2.033-.156L36.477 41.018c-.606.274-.994.802-1.157 1.398h-.106v41.736l.002.038.001.023c.031 5.695 4.544 10.328 10.156 10.532v6.787l4.267-5.152 4.074 5.152v-6.768H76.47a2.14 2.14 0 0 0 2.135-2.149 2.14 2.14 0 0 0-2.135-2.146v-.002a2.064 2.064 0 0 1-2.054-2.073 2.06 2.06 0 0 1 2.054-2.067m-36.61-.028h5.516v4.14a6.28 6.28 0 0 1-5.516-4.14m30.663 4.17H53.715v-4.17h16.813c-.23.661-.38 1.357-.38 2.095 0 .73.146 1.422.373 2.075m3.817-8.466H47.317l19.812-8.952a2.15 2.15 0 0 0 1.262-1.96v-26.5h5.946z"/></svg></svg>